<svg width="600" height="340" viewBox="0 0 600 340" fill="none" xmlns="http://www.w3.org/2000/svg">
<g clip-path="url(#clip0_1265_4695)">
<path d="M177.41 303.88C233.969 303.88 279.82 258.029 279.82 201.47C279.82 144.91 233.969 99.0596 177.41 99.0596C120.851 99.0596 75 144.91 75 201.47C75 258.029 120.851 303.88 177.41 303.88Z" fill="white"/>
<path d="M374.46 287.43L402.71 281.86L407.9 280.84C407.9 280.84 410.2 294.35 404.22 300C398.23 305.65 375.35 301 372.13 298.88C368.92 296.75 374.46 287.44 374.46 287.44V287.43Z" fill="#EC9568"/>
<path d="M419.34 289.41L410.9 303.67L400.36 302.44L407.9 280.84L419.34 289.41Z" fill="#EC9568"/>
<path d="M253.19 251.31C251.87 263.21 284.84 296.9 288.24 298.26C304.77 304.87 371.56 308.84 375.53 307.52C379.84 306.08 375.64 295.13 370.9 294.29C359.66 292.31 333.03 284.13 306.76 275.77C292.21 271.14 282.15 241.56 267.08 238.08C257.31 235.82 254.16 242.57 253.19 251.31V251.31Z" fill="#EC9568"/>
<path d="M235.03 191.4C235.03 191.4 243.63 189.56 250.9 194.85C258.17 200.14 272 219.06 284.22 249.69C285.32 252.44 261.45 271.82 261.45 271.82C261.45 271.82 218.5 238.36 235.03 191.4V191.4Z" fill="#0078AA"/>
<path d="M254 232.06L262.37 270.44L263.02 270.57L273.99 261.06C267.23 261.66 260.99 242.06 253.99 232.06H254Z" fill="#0A5096"/>
<path d="M152.78 194.66C152.78 194.66 164.02 181.43 166.67 180.11C168.77 179.06 207 177.07 237.08 185.23C241.75 186.5 250.12 193.77 250.44 195.16C254.4 212.66 272.36 315.96 270.93 316.34H174.6C174.6 316.34 149.47 225.75 152.78 194.67V194.66Z" fill="#00AAEB"/>
<path d="M159.56 252.04L160 257.07L170 300.07L201 304.07C190.55 302.74 181.3 277.12 173 232.07L159.56 252.04Z" fill="#0078AA"/>
<path d="M166 255.06L143.64 291.95L254.96 300.99C254.96 300.99 258.71 310.47 252.09 312.45C245.48 314.43 115.87 313.45 115.87 313.45C115.87 313.45 106.07 308 112.31 289.31C119.93 266.12 128.65 237.07 128.65 237.07L166 255.06V255.06Z" fill="#F7B68B"/>
<path d="M166.13 255.82L128.58 242.7C128.58 242.7 128 244.06 126.33 255.9C144.99 258.06 148.18 266.83 159.44 265.55L166.13 255.82V255.82Z" fill="#E9AB86"/>
<path d="M172.49 179.34C167.51 177.22 161.46 181.19 155.25 188.37C136.62 209.91 121.41 247.79 125 248.06C138 249.06 141.01 260.2 162.51 259.29C168 259.06 179 239.06 180.6 224.6C182.02 211.79 183.7 184.11 172.49 179.34V179.34Z" fill="#5AC8F5"/>
<path d="M246.07 300.41C246.07 300.41 268.22 290.98 273.61 292.02C279 293.06 294 305.06 276.94 309.91C271.55 316.14 248.32 313.82 244.9 312.03C241.49 310.24 246.06 300.41 246.06 300.41H246.07Z" fill="#F7B68B"/>
<path d="M500.11 105.76C512.51 105.76 522.56 95.71 522.56 83.31V25.45C522.56 13.05 512.51 3 500.11 3H345.83C333.43 3 323.38 13.05 323.38 25.45V83.31C323.38 95.71 333.43 105.76 345.83 105.76H399.11L422.83 131.06L446.55 105.76H500.11V105.76Z" fill="white"/>
<path d="M500.11 105.76V107.26C513.34 107.26 524.06 96.54 524.06 83.31V25.45C524.06 12.22 513.34 1.5 500.11 1.5H345.83C332.6 1.5 321.88 12.22 321.88 25.45V83.31C321.88 96.54 332.6 107.26 345.83 107.26H398.46L421.73 132.09C422.01 132.39 422.41 132.56 422.82 132.56C423.23 132.56 423.63 132.39 423.91 132.09L447.18 107.26H500.09V104.26H446.53C446.12 104.26 445.72 104.43 445.44 104.73L422.82 128.86L400.2 104.73C399.92 104.43 399.52 104.26 399.11 104.26H345.83C340.04 104.26 334.81 101.92 331.01 98.12C327.22 94.32 324.87 89.09 324.87 83.3V25.45C324.87 19.66 327.21 14.43 331.01 10.63C334.81 6.84 340.04 4.49 345.83 4.49H500.11C505.9 4.49 511.13 6.83 514.93 10.63C518.72 14.43 521.07 19.66 521.07 25.45V83.31C521.07 89.1 518.73 94.33 514.93 98.13C511.13 101.92 505.9 104.27 500.11 104.27V105.77V105.76Z" fill="#00AAEB"/>
<path d="M287.92 299.02C291 302.24 284.41 309.59 280.96 314.06L270.35 313.9L275.68 292.65C275.68 292.65 284.84 295.8 287.92 299.02Z" fill="#E9AB86"/>
<path d="M161.96 309.99C161.96 309.99 258.71 310.47 252.09 312.45C245.48 314.43 115.87 313.45 115.87 313.45C115.87 313.45 106.07 308 112.31 289.31C107 317.06 161.96 309.99 161.96 309.99V309.99Z" fill="#E9AB86"/>
<path d="M288.09 302.05H455.15C455.15 302.05 448.28 313.75 434.59 313.04H292.65C287.13 313.04 288.08 302.05 288.08 302.05H288.09Z" fill="#323C46"/>
<path d="M222.92 312.87H91V340.08H222.92V312.87Z" fill="#828C9B"/>
<path d="M490.68 312.87H218V340.08H490.68V312.87Z" fill="#5A6473"/>
<path d="M348.37 42.1299L353.58 51.9399L364.41 53.9199L356.8 61.9699L358.28 72.9999L348.37 68.1599L338.45 72.9999L339.93 61.9699L332.32 53.9199L343.15 51.9399L348.37 42.1299Z" fill="#FFB400"/>
<path d="M386.17 34.2803L391.38 44.0903L402.21 46.0803L394.6 54.1203L396.08 65.1603L386.17 60.3203L376.25 65.1603L377.74 54.1203L370.13 46.0803L380.96 44.0903L386.17 34.2803Z" fill="#FFB400"/>
<path d="M423.97 26.4404L429.18 36.2504L440.02 38.2304L432.4 46.2804L433.89 57.3104L423.97 52.4704L414.06 57.3104L415.54 46.2804L407.93 38.2304L418.76 36.2504L423.97 26.4404Z" fill="#FFB400"/>
<path d="M461.78 34.2803L466.99 44.0903L477.82 46.0803L470.21 54.1203L471.69 65.1603L461.78 60.3203L451.86 65.1603L453.34 54.1203L445.73 46.0803L456.56 44.0903L461.78 34.2803Z" fill="#FFB400"/>
<path d="M499.58 42.1299L504.79 51.9399L515.62 53.9199L508.01 61.9699L509.5 72.9999L499.58 68.1599L489.66 72.9999L491.15 61.9699L483.54 53.9199L494.37 51.9399L499.58 42.1299Z" fill="#FFB400"/>
<path d="M206.64 133.1C206.64 133.1 206.21 118.47 207.14 112.31C208.07 106.15 213.93 102.95 222.81 99.5802C231.69 96.2002 230.44 97.0902 228.19 95.6002C225.94 94.1002 233.6 92.0202 243.29 95.1102C252.98 98.2002 268.61 106.63 258.73 122.28C248.85 137.93 208.87 148.84 206.64 133.1V133.1Z" fill="#106B87"/>
<path d="M213.63 141.06C215.09 143.82 215.4 133.77 216.5 130.45C217.6 127.13 221.57 121.2 224.97 120.18C228.37 119.16 227.72 111.21 225.42 108.91C223.12 106.6 235.04 110.78 243.3 111.51C251.55 112.24 254.98 111.63 258.83 118.32C262.68 125.01 262.69 129.34 260.97 136.76C259.25 144.19 250.71 160.57 249.64 164.3C248.57 168.03 249.48 168.79 242.58 169.2" fill="#F7B68B"/>
<path d="M261.84 140.46L264.29 135.84C263.33 128.67 261.66 122.78 258.98 118.66C258.98 118.66 258.19 122.4 241.72 116.69C217.17 108.18 234.34 124.27 230.42 134.95C226.5 145.63 219.15 148.12 218.83 142.15C218.51 136.18 211.59 129.96 205.47 132.98C199.34 136 206.07 150.01 208 152.3C209.92 154.59 212.02 154.78 212.02 154.78L197.17 181.73C197.17 181.73 204.99 201.06 221.03 201.08C227.05 191.22 231.99 176.06 231.99 176.06C231.99 176.06 231.74 177.68 237.48 181.28C248.02 187.9 251.39 177.3 251.39 177.3L257.51 160.44L262.67 160.15C263.9 160.08 264.8 158.97 264.6 157.75L261.83 140.45L261.84 140.46Z" fill="#F7B68B"/>
<path d="M256.32 169.78H256.29C256.14 169.79 255.37 169.84 254.16 169.84C250.08 169.84 240.91 169.28 232.88 165.1C228.86 163.01 225.12 160.05 222.33 155.81C219.54 151.57 217.67 146.03 217.49 138.66C217.45 136.9 217.43 135.21 217.43 133.57C217.43 115.85 219.85 105.45 222.97 99.6997C224.53 96.8197 226.23 95.0897 227.89 94.0597C229.55 93.0397 231.2 92.6897 232.77 92.6797C234.64 92.6797 236.39 93.2097 237.66 93.7497C238.29 94.0197 238.81 94.2897 239.15 94.4897C239.32 94.5897 239.45 94.6697 239.54 94.7197L239.63 94.7797H239.65L239.77 94.6197L239.65 94.7897L239.77 94.6197L239.65 94.7897C240.33 95.2597 241.27 95.0897 241.74 94.4097C242.21 93.7297 242.04 92.7897 241.36 92.3197C241.3 92.2797 240.36 91.6297 238.84 90.9897C237.32 90.3397 235.21 89.6897 232.78 89.6797C230.75 89.6797 228.49 90.1597 226.32 91.4997C224.69 92.5097 223.12 93.9797 221.71 96.0197C219.58 99.0897 217.78 103.42 216.49 109.51C215.21 115.6 214.44 123.44 214.44 133.56C214.44 135.22 214.46 136.94 214.5 138.72C214.68 146.56 216.71 152.71 219.83 157.45C222.17 161 225.1 163.75 228.27 165.85C233.02 169.01 238.28 170.74 242.96 171.69C247.63 172.65 251.73 172.82 254.17 172.82C255.65 172.82 256.52 172.75 256.56 172.75C257.39 172.69 258 171.97 257.94 171.14C257.88 170.31 257.16 169.7 256.33 169.76L256.32 169.78Z" fill="#323C46"/>
<path d="M248.27 174.71L254.3 174.63C256.09 174.61 257.54 173.12 257.52 171.32C257.5 169.53 256.01 168.08 254.21 168.1L248.18 168.18C246.39 168.2 244.94 169.69 244.96 171.49C244.98 173.28 246.47 174.73 248.27 174.71Z" fill="#FFB400"/>
<path d="M248.27 174.71V175.71L254.31 175.63C256.64 175.59 258.51 173.69 258.51 171.37V171.31C258.47 168.98 256.57 167.11 254.25 167.1H254.19L248.16 167.18C245.83 167.22 243.96 169.12 243.96 171.44V171.5C244 173.83 245.9 175.7 248.22 175.7H248.28V174.7L248.25 173.7H248.22C247 173.7 245.97 172.7 245.96 171.47V171.44C245.96 170.22 246.96 169.19 248.19 169.18L254.22 169.1H254.25C255.47 169.1 256.5 170.1 256.51 171.33V171.36C256.51 172.58 255.51 173.61 254.28 173.62L248.25 173.7V174.7L248.27 174.71Z" fill="#323C46"/>
<path d="M207.44 140.17C206.26 145.03 209.25 149.93 214.11 151.1C218.97 152.28 223.87 149.29 225.04 144.43C226.22 139.57 223.23 134.67 218.37 133.5C213.51 132.32 208.61 135.31 207.44 140.17Z" fill="#FFB400"/>
<path d="M207.44 140.17L206.47 139.93C206.28 140.72 206.19 141.52 206.19 142.3C206.19 146.84 209.28 150.95 213.89 152.07C214.68 152.26 215.48 152.35 216.26 152.35C220.8 152.35 224.91 149.26 226.03 144.66C226.22 143.87 226.31 143.07 226.31 142.29C226.31 137.75 223.22 133.64 218.61 132.52C217.82 132.33 217.02 132.24 216.24 132.24C211.7 132.24 207.59 135.33 206.47 139.94L207.44 140.18L208.41 140.42C209.3 136.73 212.6 134.25 216.23 134.25C216.86 134.25 217.49 134.32 218.13 134.48C221.82 135.37 224.3 138.67 224.3 142.3C224.3 142.93 224.23 143.56 224.07 144.2C223.18 147.89 219.88 150.36 216.25 150.37C215.62 150.37 214.99 150.3 214.35 150.14C210.66 149.25 208.18 145.95 208.18 142.32C208.18 141.69 208.25 141.06 208.41 140.42L207.44 140.18V140.17Z" fill="#323C46"/>
<path d="M215.16 158.09C215.16 158.09 216.69 166.65 218.42 169.44C220.15 172.23 228 175.78 230.69 177.08C233.38 178.38 224.18 177.51 219.79 177.63C212.84 179.34 206.8 183.78 207.27 179.97C207.74 176.16 208.74 169.2 210.07 166.79C211.41 164.38 215.17 158.08 215.17 158.08L215.16 158.09Z" fill="#E9AB86"/>
<path d="M239.09 307.11L239 306.95L239.09 302.04H303.15C303.15 302.04 301.01 313.05 290.59 313.03H252.66C247.14 313.03 242.33 312.27 239.63 308.01L239.09 307.1V307.11Z" fill="#B4BECD"/>
<path d="M302.87 302.39L329.2 202.6C329.9 199.96 332.59 197.83 335.22 197.83H477.7C480.33 197.83 481.9 199.96 481.21 202.6L454.88 302.39H302.87Z" fill="#5A6473"/>
<path d="M430.31 237.78C426.92 250.36 408.42 263.23 386.42 280.45C373.71 263.23 362.14 250.36 365.53 237.78C370.46 219.51 395.5 215.25 400.06 229.83C412.4 215.36 435.25 219.44 430.31 237.78" fill="white"/>
<path d="M390.4 257.48C388.74 258.8 386.76 259.54 384.91 259.54C381.05 259.54 378.77 256.4 379.82 252.54V252.52C380.86 248.66 384.83 245.53 388.69 245.52C390.14 245.52 391.42 245.97 392.37 246.81L395.11 244.65C393.73 243.25 391.75 242.49 389.5 242.49H389.48C383.96 242.51 378.29 246.99 376.81 252.5C375.32 258.02 378.58 262.5 384.09 262.52H384.11C386.76 262.52 389.58 261.47 391.95 259.6L394.8 257.33L393.25 255.19L390.4 257.46V257.48Z" fill="#FEB600"/>
<path d="M410.14 245.43C408.78 243.55 406.52 242.5 403.87 242.5H403.85C401.2 242.5 398.38 243.55 396 245.43L393.12 247.7L394.67 249.83C394.67 249.83 397.36 247.71 397.55 247.56C401.01 244.83 405.43 244.83 407.42 247.56C408.38 248.87 408.63 250.65 408.13 252.51C407.1 256.37 403.13 259.51 399.27 259.51C397.82 259.51 396.52 259.05 395.57 258.2L392.85 260.38C394.23 261.78 396.21 262.54 398.46 262.54H398.48C404 262.53 409.68 258.04 411.16 252.52V252.5C411.88 249.84 411.51 247.29 410.13 245.42" fill="#00AAEB"/>
<path d="M389.82 241.29H389.84C390 241.29 390.16 241.29 390.32 241.3C392.01 238.34 395.28 236.32 398.36 236.33C401.44 236.33 403.61 238.36 403.7 241.31C403.86 241.31 404.03 241.3 404.19 241.3H404.21C405.11 241.3 405.97 241.41 406.79 241.62C407.25 236.83 404.04 233.32 399.18 233.32C394.32 233.32 389.22 236.83 387.09 241.62C388.01 241.41 388.93 241.3 389.83 241.3" fill="#00AAEB"/>
<path d="M256.64 309.06H285.37C286.83 309.06 288.01 307.88 288.01 306.42V305.94C288.01 305.45 287.62 305.06 287.13 305.06H254.89C254.4 305.06 254.01 305.45 254.01 305.94V306.42C254.01 307.88 255.19 309.06 256.65 309.06H256.64Z" fill="#828C9B"/>
</g>
<defs>
<clipPath id="clip0_1265_4695">
<rect width="600" height="340" fill="white"/>
</clipPath>
</defs>
</svg>
